# xmcd
#
# Track frame offsets: 
#        150
#        10459
#        24538
#        43702
#        70117
#        86348
#        111198
#
# Disc length: 1883 seconds
#
# Revision: 6
# Processed by: cddbd v1.5.2PL0 Copyright (c) Steve Scherf et al.
# Submitted via: ExactAudioCopy v1.1
#
DISCID=51075907
DTITLE=The Yardbirds - Live! Blueswailing July '64
DYEAR=1964
DGENRE=Blues
TTITLE0=Someone To Love Me (live)
TTITLE1=Too Much Monkey Business (live)
TTITLE2=Got Love If You Want It (live)
TTITLE3=Smokestack Lightning (live)
TTITLE4=Good Morning Little Schoolgirl (live)
TTITLE5=She's So Respectable - Humpty Dumpty (live)
TTITLE6=The Sky Is Crying (live)
EXTD=YEAR: 1964
EXTT0=
EXTT1=
EXTT2=
EXTT3=
EXTT4=
EXTT5=
EXTT6=
PLAYORDER=
